# xmcd
#
# Track frame offsets: 
#        150
#        15253
#        29581
#        44966
#        60604
#        74393
#        89033
#        102113
#        115447
#        131856
#        148274
#        165915
#        183910
#        202228
#        218616
#        235110
#
# Disc length: 3349 seconds
#
# Revision: 0
# Processed by: cddbd v1.5.2PL0 Copyright (c) Steve Scherf et al.
# Submitted via: ExactAudioCopyFreeDBPlugin 1.0
#
DISCID=f10d1310
DTITLE=Jake Owen - Days Of Gold
DYEAR=2013
DGENRE=Country
TTITLE0=Days Of Gold
TTITLE1=Beachin'
TTITLE2=1972
TTITLE3=Ghost Town
TTITLE4=Life Of The Party
TTITLE5=Good Timing
TTITLE6=Tall Glass Of Something
TTITLE7=One Little Kiss (Never Kille Nobody)
TTITLE8=What We Ain't Got
TTITLE9=Tipsy
TTITLE10=Divin' All Night
TTITLE11=Sure Feels Right
TTITLE12=After The Music's Stopped
TTITLE13=I Like You A Lot
TTITLE14=Summer Line (feat. Florida Georgia Line)
TTITLE15=Surefire Feeling
EXTD=
EXTT0=
EXTT1=
EXTT2=
EXTT3=
EXTT4=
EXTT5=
EXTT6=
EXTT7=
EXTT8=
EXTT9=
EXTT10=
EXTT11=
EXTT12=
EXTT13=
EXTT14=
EXTT15=
PLAYORDER=
